# xmcd
#
# Track frame offsets:
# 150
# 12445
# 27665
# 40238
# 62480
# 76558
# 88992
# 104714
# 118569
# 128774
# 139508
# 184654
# 208596
# 220891
# 231179
# 254257
# 270843
# 293754
# 305575
# 326229
# 345740
#
# Disc length: 4785 seconds
#
# Revision: 1
# Processed by: cddbd v1.5.1PL0 Copyright (c) Steve Scherf et al.
# Submitted via: CedeCatalogueitor 2.6.0.5 http://personales.ya.com/cdcatalogueitor
#
DISCID=3212af15
DTITLE=Duane Allman - An Anthology Volume II
DYEAR=1972
DGENRE=Southern Rock
TTITLE0=Happily Married Man. Duane Allman
TTITLE1=It Ain´t Fair. Aretha Franklin
TTITLE2=The Wheight. King Curtis
TTITLE3=You Reap What You Sow. Otis Rush
TTITLE4=Matchbox. Ronnie Hawkins
TTITLE5=Born To Be Wild. Wilson Pickett
TTITLE6=No Money Down. Duane Allman
TTITLE7=Been Gone Too Long. The Hourglass
TTITLE8=Stuff You Gotta Watch.  Arthur Conley
TTITLE9=Dirty Old Man. Lulu
TTITLE10=Push Push. Herbie Mann
TTITLE11=Walk On Gilded  Splinters. Johnny Jenkins
TTITLE12=Waiting For A Train. Boz Scaggs
TTITLE13=Don´t Tell Me Your Troubles. Ronnie Hawkins
TTITLE14=Goin´upstairs. Sam Samudio
TTITLE15=Come On In My Kitchen. Delaney and Bonnie
TTITLE16=Dimples. The Allman Brothers Band
TTITLE17=Goin´up The Country. The Duck And The Bear
TTITLE18=Done Somebody Wrong. The Allman Brothers Band
TTITLE19=Leave My Blus At Home. The Allman Brothers Band
TTITLE20=Midnight Rider. The Allman Brothers Band
EXTD=
EXTT0=
EXTT1=
EXTT2=
EXTT3=
EXTT4=
EXTT5=
EXTT6=
EXTT7=
EXTT8=
EXTT9=
EXTT10=
EXTT11=
EXTT12=
EXTT13=
EXTT14=
EXTT15=
EXTT16=
EXTT17=
EXTT18=
EXTT19=
EXTT20=
PLAYORDER=
